<svg id="Capa_1" enable-background="new 0 0 512.013 512.013" height="512" viewBox="0 0 512.013 512.013" width="512" xmlns="http://www.w3.org/2000/svg"><g><path d="m512.013 240.395c0-23.035-2.701-38.378-2.701-38.378l-27.685-.991c-10.837 79.377-74.513 136.438-153.654 137.063-41.061 0-79.721-16.046-108.859-45.184s-45.184-67.798-45.184-108.859c.39-80.585 59.579-143.106 137.067-153.654l-.999-27.686c-12.139-1.346-25.268-2.753-38.375-2.699-64.209 0-124.576 25.005-169.979 70.407-45.404 45.403-70.409 105.77-70.409 169.979 0 43.266 11.44 84.818 32.868 121.251-.959 1.562-1.867 3.162-2.711 4.805-34.75 5.065-62.064 37.962-61.38 72.299 0 40.394 32.863 73.257 73.256 73.257h174.77c22.152 0 41.217-13.452 49.469-32.613 54.423-5.788 104.852-29.773 144.097-69.018 45.404-45.402 70.409-105.769 70.409-169.979zm-263.974 241.611h-174.77c-23.852 0-43.256-19.405-43.256-43.257 0-23.593 18.461-42.585 42.029-43.237l10.3-.285c5.088-20.851 21.288-38.953 44.23-38.571 27.034 1.147 40.179 18.191 46.228 47.939 29.9-15.861 58.648-11.902 63.923 29.454l11.933.302c13.021.329 23.22 10.791 23.22 23.817 0 13.145-10.693 23.838-23.837 23.838zm53.079-33.304c-3.743-20.708-20.774-38.578-40.514-42.889-9.99-26.838-40.795-44.487-68.968-39.577-12.399-23.875-37.398-39.58-65.063-39.58-14.843 0-28.94 4.505-40.739 12.404-16.065-30.053-24.597-63.723-24.597-98.665 0-97.131 66.174-179.102 155.799-203.206-44.781 33.939-73.104 87.693-73.104 146.858 0 49.074 19.167 95.269 53.97 130.072 34.804 34.804 80.998 53.972 130.072 53.971 59.166-.001 112.919-28.323 146.858-73.104-21.621 80.388-89.802 141.891-173.714 153.716z"/><path d="m367.227 145.456 24.411-14.094v28.187h30v-28.187l24.41 14.094 15-25.981-24.411-14.094 24.411-14.093-15-25.981-24.41 14.094v-28.188h-30v28.188l-24.411-14.094-15 25.981 24.411 14.093-24.411 14.094z"/><path d="m283.889 158.961v28.188l-24.411-14.094-15 25.981 24.412 14.093-24.412 14.094 15 25.981 24.411-14.094v28.187h30v-28.187l24.411 14.094 15-25.981-24.411-14.094 24.411-14.093-15-25.981-24.411 14.094v-28.188z"/></g></svg>